<svg xmlns="http://www.w3.org/2000/svg" xmlns:xlink="http://www.w3.org/1999/xlink" xmlns:inkscape="http://www.inkscape.org/namespaces/inkscape" version="1.1" width="595.5" height="842.25" viewBox="0 0 595.5 842.25">
<defs>
<clipPath id="clip_0">
<path transform="matrix(.24,0,0,.24,0,0)" d="M0 0H2481.25V3509.375H0Z" clip-rule="evenodd"/>
</clipPath>
<clipPath id="clip_1">
<path transform="matrix(.24,0,0,.24,0,0)" d="M0 0H2479.9322V3507.7357H0Z" clip-rule="evenodd"/>
</clipPath>
<clipPath id="clip_2">
<path transform="matrix(.24,0,0,.24,0,0)" d="M0 3389.6495H413.36286V3507.7357H0Z" clip-rule="evenodd"/>
</clipPath>
<clipPath id="clip_3">
<path transform="matrix(.24,0,0,.24,0,0)" d="M413.36286 3389.6495H826.72677V3507.7357H413.36286Z" clip-rule="evenodd"/>
</clipPath>
<clipPath id="clip_4">
<path transform="matrix(.24,0,0,.24,0,0)" d="M826.685 3389.6495H1240.049V3507.7357H826.685Z" clip-rule="evenodd"/>
</clipPath>
<clipPath id="clip_5">
<path transform="matrix(.24,0,0,.24,0,0)" d="M1240.049 3389.6495H1653.4127V3507.7357H1240.049Z" clip-rule="evenodd"/>
</clipPath>
<clipPath id="clip_6">
<path transform="matrix(.24,0,0,.24,0,0)" d="M1653.4127 3389.6495H2066.7767V3507.7357H1653.4127Z" clip-rule="evenodd"/>
</clipPath>
<clipPath id="clip_7">
<path transform="matrix(.24,0,0,.24,0,0)" d="M2066.7349 3389.6495H2479.9322V3507.7357H2066.7349Z" clip-rule="evenodd"/>
</clipPath>
</defs>
<g clip-path="url(#clip_0)">
<path transform="matrix(.75,0,0,.75,0,0)" d="M0 0H794V1123H0Z" fill="#ffffff"/>
</g>
<g clip-path="url(#clip_1)">
<path transform="matrix(.99983987,0,0,.99983987,-5.002135,-5.002135)" d="M0 0H605V852H0Z" fill="#ffffff"/>
</g>
<g clip-path="url(#clip_2)">
<path transform="matrix(.99983987,0,0,.99983987,-5.002135,-5.002135)" d="M0 0H605V852H0Z" fill="#17a5b1"/>
</g>
<g clip-path="url(#clip_3)">
<path transform="matrix(.99983987,0,0,.99983987,-5.002135,-5.002135)" d="M0 0H605V852H0Z" fill="#189539"/>
</g>
<g clip-path="url(#clip_4)">
<path transform="matrix(.99983987,0,0,.99983987,-5.002135,-5.002135)" d="M0 0H605V852H0Z" fill="#ea5f7c"/>
</g>
<g clip-path="url(#clip_5)">
<path transform="matrix(.99983987,0,0,.99983987,-5.002135,-5.002135)" d="M0 0H605V852H0Z" fill="#17a5b1"/>
</g>
<g clip-path="url(#clip_6)">
<path transform="matrix(.99983987,0,0,.99983987,-5.002135,-5.002135)" d="M0 0H605V852H0Z" fill="#189539"/>
</g>
<g clip-path="url(#clip_7)">
<path transform="matrix(.99983987,0,0,.99983987,-5.002135,-5.002135)" d="M0 0H605V852H0Z" fill="#ea5f7c"/>
</g>
</svg>
